<?xml version="1.0" encoding="iso-8859-1"?>
<!-- Uploaded to: SVG Repo, www.svgrepo.com, Generator: SVG Repo Mixer Tools -->
<svg fill="#FFFFFF" height="800px" width="800px" version="1.1" id="Layer_1" xmlns="http://www.w3.org/2000/svg" xmlns:xlink="http://www.w3.org/1999/xlink" 
	 viewBox="0 0 512 512" xml:space="preserve">
<g>
	<g>
		<path d="M452.601,150.666C428.791,61.956,347.946,0,256,0S83.209,61.956,59.413,150.614l-0.179,0.658
			c-4.506,16.983-6.791,34.574-6.791,52.286v259.45c0,27.015,21.977,48.992,48.992,48.992c15.683,0,29.668-7.407,38.641-18.907
			c8.973,11.5,22.959,18.907,38.642,18.907s29.668-7.407,38.641-18.907C226.332,504.593,240.317,512,256,512
			s29.668-7.407,38.641-18.907C303.615,504.593,317.6,512,333.283,512s29.668-7.407,38.641-18.907
			c8.973,11.5,22.959,18.907,38.642,18.907c27.015,0,48.992-21.977,48.992-48.992v-259.45
			C459.558,185.66,457.217,167.864,452.601,150.666z M438.857,463.008c0,15.6-12.691,28.291-28.291,28.291
			s-28.291-12.691-28.291-28.291c0-5.716-4.634-10.35-10.35-10.35s-10.35,4.634-10.35,10.35c0,15.6-12.691,28.291-28.291,28.291
			c-15.6,0-28.291-12.691-28.291-28.291c0-5.716-4.634-10.35-10.35-10.35s-10.35,4.634-10.35,10.35
			c0,15.6-12.691,28.291-28.291,28.291c-15.6,0-28.291-12.691-28.291-28.291c0-5.716-4.634-10.35-10.35-10.35
			c-5.716,0-10.35,4.634-10.35,10.35c0,15.6-12.691,28.291-28.291,28.291c-15.6,0-28.291-12.691-28.291-28.291
			c0-5.716-4.634-10.35-10.35-10.35c-5.716,0-10.35,4.634-10.35,10.35c0,15.6-12.691,28.291-28.291,28.291
			s-28.291-12.691-28.291-28.291v-259.45c0-15.92,2.052-31.726,6.076-46.897l0.172-0.629C100.778,76.352,173.402,20.701,256,20.701
			s155.222,55.651,176.608,135.332c4.147,15.448,6.249,31.438,6.249,47.525V463.008z"/>
	</g>
</g>
<g>
	<g>
		<circle cx="163.826" cy="286.692" r="17.247"/>
	</g>
</g>
<g>
	<g>
		<circle cx="348.174" cy="286.692" r="17.247"/>
	</g>
</g>
<g>
	<g>
		<path d="M316.722,309.487H195.278c-5.716,0-10.35,4.634-10.35,10.35c0,19.128,7.495,37.074,21.105,50.532
			c13.395,13.246,31.14,20.541,49.969,20.541c18.828,0,36.573-7.295,49.968-20.541c13.61-13.458,21.105-31.404,21.105-50.532
			C327.073,314.121,322.439,309.487,316.722,309.487z M256.001,370.211c-8.563-0.001-16.81-2.131-24.129-6.138
			c0.178-0.068,0.357-0.135,0.538-0.201c14.851-5.49,32.318-5.498,47.183,0.001c0.179,0.066,0.357,0.133,0.535,0.202
			C272.809,368.081,264.563,370.211,256.001,370.211z M296.968,349.156c0.353-0.491-15.977-6.485-17.473-6.882
			c-6.493-1.725-13.178-2.723-19.891-2.993c-13.76-0.553-28.352,1.775-40.79,7.87c-0.718,0.352-1.423,0.713-2.118,1.086
			c-0.266,0.144-0.529,0.29-0.792,0.436c-0.291,0.161-0.588,0.317-0.875,0.483c-4.095-5.691-6.925-12.129-8.345-18.969h98.63
			C303.892,337.029,301.063,343.465,296.968,349.156z"/>
	</g>
</g>
</svg>